<svg t="1664177324362" class="icon" viewBox="0 0 1024 1024" version="1.1" xmlns="http://www.w3.org/2000/svg" p-id="6817" width="200" height="200"><path d="M314.133504 723.95264c-4.79744 0-9.59488-1.824768-13.263872-5.477376-7.358464-7.324672-7.385088-19.227648-0.060416-26.586112l423.91552-425.83552c7.327744-7.359488 19.23072-7.384064 26.587136-0.060416 7.359488 7.324672 7.386112 19.228672 0.060416 26.587136l-423.91552 425.834496C323.782656 722.106368 318.957568 723.95264 314.133504 723.95264z" p-id="6818"></path><path d="M738.499584 724.333568c-4.825088 0-9.648128-1.846272-13.321216-5.533696L300.3648 292.202496c-7.325696-7.35744-7.30112-19.260416 0.05632-26.587136 7.356416-7.32672 19.260416-7.30112 26.587136 0.05632L751.8208 692.268032c7.32672 7.358464 7.302144 19.26144-0.055296 26.587136C748.096512 722.507776 743.298048 724.333568 738.499584 724.333568z" p-id="6819"></path><path d="M522.753024 957.985792c-62.756864 0-123.645952-12.295168-180.97664-36.544512-55.364608-23.417856-105.084928-56.938496-147.775488-99.631104-42.691584-42.692608-76.212224-92.411904-99.629056-147.777536-24.24832-57.330688-36.544512-118.2208-36.544512-180.977664 0-62.75584 12.295168-123.644928 36.544512-180.974592 23.417856-55.365632 56.937472-105.084928 99.629056-147.776512 42.691584-42.691584 92.41088-76.212224 147.775488-99.63008 57.330688-24.249344 118.219776-36.544512 180.97664-36.544512S646.4 40.424448 703.730688 64.672768c55.365632 23.417856 105.084928 56.938496 147.777536 99.63008 42.691584 42.691584 76.213248 92.411904 99.631104 147.776512 24.249344 57.329664 36.544512 118.218752 36.544512 180.974592 0 62.756864-12.295168 123.646976-36.544512 180.977664-23.417856 55.365632-56.938496 105.084928-99.631104 147.777536-42.692608 42.691584-92.411904 76.213248-147.777536 99.631104C646.4 945.690624 585.509888 957.985792 522.753024 957.985792zM522.753024 65.728512c-57.69728 0-113.65888 11.295744-166.330368 33.573888-50.88256 21.522432-96.584704 52.33664-135.835648 91.587584-39.250944 39.250944-70.065152 84.953088-91.58656 135.836672C106.722304 379.398144 95.42656 435.35872 95.42656 493.056c0 57.69728 11.295744 113.659904 33.573888 166.330368 21.521408 50.883584 52.335616 96.585728 91.58656 135.837696 39.250944 39.250944 84.952064 70.066176 135.836672 91.587584 52.670464 22.278144 108.632064 33.573888 166.329344 33.573888 57.69728 0 113.65888-11.295744 166.331392-33.573888 50.883584-21.522432 96.585728-52.33664 135.837696-91.587584 39.250944-39.251968 70.066176-84.954112 91.587584-135.837696 22.278144-52.671488 33.573888-108.633088 33.573888-166.330368 0-57.696256-11.295744-113.657856-33.573888-166.32832-21.522432-50.883584-52.33664-96.585728-91.587584-135.836672-39.251968-39.250944-84.954112-70.066176-135.837696-91.587584C636.411904 77.024256 580.450304 65.728512 522.753024 65.728512z" p-id="6820"></path></svg>