<svg t="1664162111997" class="icon" viewBox="0 0 1056 1024" version="1.1" xmlns="http://www.w3.org/2000/svg" p-id="4019" width="200" height="200"><path d="M242.133934 584.793169c0.635491 0 1.247446 0.117684 1.882937 0.117683" fill="#777777" p-id="4020"></path><path d="M1043.017664 432.793077L554.419041 9.638284a39.930033 39.930033 0 0 0-52.027904 0L13.757209 432.816614a39.706435 39.706435 0 0 0 26.019836 69.727512h78.847988v444.643811a76.882673 76.882673 0 0 0 76.788526 76.812063h665.853608a76.882673 76.882673 0 0 0 76.800294-76.812063V502.544126h78.847988a39.718203 39.718203 0 0 0 25.9963-69.751049zM610.612943 969.712572H446.185467V725.354418a22.536403 22.536403 0 0 1 22.512865-22.489329h119.389977a22.536403 22.536403 0 0 1 22.524634 22.489329z m271.849034-521.455875v54.287429h1.365129v444.643811A22.536403 22.536403 0 0 1 861.31424 969.712572H664.865066V725.354418a76.882673 76.882673 0 0 0-76.812062-76.788526H468.698332a76.882673 76.882673 0 0 0-76.800294 76.788526V969.712572H195.472401a22.536403 22.536403 0 0 1-22.524635-22.524635V502.544126h1.36513v-54.263892H78.800915l449.551216-389.344305 449.551217 389.344305z" p-id="4021"></path></svg>